<?xml version="1.0" standalone="no"?>
<!DOCTYPE svg PUBLIC "-//W3C//DTD SVG 20010904//EN"
 "https://www.w3.org/TR/2001/REC-SVG-20010904/DTD/svg10.dtd">
<svg version="1.0" xmlns="https://www.w3.org/2000/svg"
 width="401.000000pt" height="401.000000pt" viewBox="0 0 401.000000 401.000000"
 preserveAspectRatio="xMidYMid meet">
<metadata>
Created by potrace 1.11, written by Peter Selinger 2001-2013
</metadata>
<g transform="translate(0.000000,401.000000) scale(0.100000,-0.100000)"
fill="#000000" stroke="none">
<path d="M350 3005 l0 -655 528 0 527 -1 147 -212 147 -212 -22 -17 c-12 -9
-31 -23 -41 -31 -18 -13 -9 -20 120 -90 76 -42 140 -72 142 -67 3 8 -37 302
-42 307 -1 1 -19 -9 -40 -23 -32 -22 -40 -24 -51 -13 -17 18 -245 347 -245
354 0 3 32 5 70 5 l70 0 0 655 0 655 -655 0 -655 0 0 -655z m1200 0 l0 -545
-57 0 -58 1 -135 196 c-74 108 -136 201 -138 208 -2 7 6 28 17 46 15 24 21 51
21 93 0 116 -80 196 -195 196 -115 0 -195 -80 -195 -194 0 -119 77 -197 196
-197 29 0 58 2 63 5 8 5 251 -333 251 -349 0 -3 -193 -5 -430 -5 l-430 0 0
545 0 545 545 0 545 0 0 -545z"/>
<path d="M3570 3481 c-85 -17 -110 -57 -110 -176 l0 -75 -45 0 -45 0 0 -45 0
-45 45 0 45 0 0 -280 0 -280 55 0 55 0 0 280 0 280 50 0 50 0 0 45 0 45 -50 0
-50 0 0 56 c0 76 11 94 60 94 l40 0 0 49 c0 62 -13 69 -100 52z"/>
<path d="M1870 3025 l0 -445 60 0 60 0 0 190 0 190 175 0 c200 0 232 -8 257
-61 10 -21 19 -77 22 -144 4 -60 9 -125 12 -142 l5 -33 74 0 c79 0 89 7 59 41
-18 20 -33 123 -34 227 0 67 -20 126 -49 142 -44 26 -44 26 1 72 54 53 73 112
65 198 -8 88 -42 141 -114 177 l-58 28 -267 3 -268 3 0 -446z m486 334 c66
-17 97 -62 97 -140 0 -69 -19 -104 -74 -131 -29 -15 -62 -18 -211 -18 l-178 0
0 143 c0 79 3 147 7 150 11 12 311 8 359 -4z"/>
<path d="M2928 3236 c-142 -38 -221 -159 -222 -341 0 -123 21 -184 88 -251 67
-66 129 -88 230 -82 134 9 220 77 260 206 7 21 5 22 -48 22 -53 0 -56 -1 -70
-32 -45 -107 -211 -137 -285 -52 -27 30 -61 115 -61 151 0 10 48 13 240 13
l240 0 0 23 c0 12 -5 55 -10 95 -18 136 -83 215 -206 247 -69 18 -93 18 -156
1z m150 -101 c43 -17 72 -51 90 -104 26 -74 32 -71 -163 -71 l-175 0 0 25 c0
31 30 93 56 117 54 49 123 60 192 33z"/>
<path d="M350 1005 l0 -655 1655 0 1655 0 0 655 0 655 -1655 0 -1655 0 0 -655z
m3200 0 l0 -545 -1545 0 -1545 0 0 545 0 545 1545 0 1545 0 0 -545z"/>
<path d="M824 1382 c-86 -30 -153 -99 -190 -197 -26 -68 -26 -268 0 -335 40
-105 110 -169 217 -196 178 -46 363 64 385 229 l7 47 -46 0 c-43 0 -47 -2 -53
-27 -25 -104 -106 -173 -202 -173 -90 0 -162 46 -201 129 -23 49 -26 69 -26
161 0 88 4 113 23 155 45 97 104 135 212 135 89 0 136 -27 170 -97 25 -52 25
-52 73 -53 56 0 59 9 23 86 -29 63 -95 120 -160 139 -66 20 -169 18 -232 -3z"/>
<path d="M1565 1387 c-97 -32 -158 -88 -204 -186 -24 -51 -26 -67 -26 -181 0
-106 4 -133 23 -182 29 -71 88 -132 160 -166 48 -22 71 -27 147 -27 111 0 176
21 239 76 151 134 164 449 23 587 -62 61 -124 84 -232 88 -57 3 -105 -1 -130
-9z m196 -88 c55 -17 104 -62 135 -124 23 -47 26 -68 26 -143 0 -203 -101
-315 -272 -299 -140 12 -220 117 -220 287 0 97 25 165 80 220 25 25 61 51 80
57 47 15 124 16 171 2z"/>
<path d="M2150 1019 l0 -361 183 4 c181 3 184 3 242 33 109 56 160 166 160
345 0 94 -3 111 -28 165 -37 78 -88 130 -154 155 -46 17 -78 20 -228 20 l-175
0 0 -361z m321 270 c111 -24 164 -113 164 -274 -1 -110 -30 -185 -90 -231 -37
-28 -42 -29 -172 -32 l-133 -4 0 270 c0 148 3 272 7 275 10 11 167 8 224 -4z"/>
<path d="M2870 1020 l0 -360 265 0 265 0 0 45 0 45 -215 0 -215 0 0 120 0 120
195 0 195 0 0 45 0 45 -195 0 -195 0 0 105 0 105 215 0 215 0 0 45 0 45 -265
0 -265 0 0 -360z"/>
</g>
</svg>
